# Blender 3.5.1
# www.blender.org
mtllib apriltag.mtl
o Cube
v -0.500000 -0.500000 0.002000
v -0.500000 0.500000 0.002000
v -0.500000 -0.500000 -0.002000
v -0.500000 0.500000 -0.002000
v 0.500000 -0.500000 0.002000
v 0.500000 0.500000 0.002000
v 0.500000 -0.500000 -0.002000
v 0.500000 0.500000 -0.002000
vn -1.0000 -0.0000 -0.0000
vn -0.0000 -0.0000 -1.0000
vn 1.0000 -0.0000 -0.0000
vn -0.0000 -0.0000 1.0000
vn -0.0000 -1.0000 -0.0000
vn -0.0000 1.0000 -0.0000
vt 0.498245 0.369735
vt 0.000000 0.995640
vt 0.494735 0.380265
vt 0.501755 0.369735
vt 1.000000 0.995640
vt 0.505265 0.380265
vt 0.498245 0.373245
vt 0.494735 0.376755
vt 0.501755 0.373245
vt 0.505265 0.376755
vt 0.000000 -0.004360
vt 0.498245 0.380265
vt 1.000000 -0.004360
vt 0.501755 0.380265
vt 0.498245 0.376755
vt 0.501755 0.376755
s 0
usemtl Material
f 1/1/1 2/4/1 4/9/1 3/7/1
f 3/7/2 4/9/2 8/16/2 7/15/2
f 7/15/3 8/16/3 6/14/3 5/12/3
f 5/11/4 6/13/4 2/5/4 1/2/4
f 3/8/5 7/15/5 5/12/5 1/3/5
f 8/16/6 4/10/6 2/6/6 6/14/6
